<?xml version="1.0" encoding="utf-8"?>
<!-- Generator: Adobe Illustrator 16.0.0, SVG Export Plug-In . SVG Version: 6.00 Build 0)  -->
<!DOCTYPE svg PUBLIC "-//W3C//DTD SVG 1.1//EN" "http://www.w3.org/Graphics/SVG/1.1/DTD/svg11.dtd">
<svg version="1.1" id="Layer_1" xmlns="http://www.w3.org/2000/svg" xmlns:xlink="http://www.w3.org/1999/xlink" x="0px" y="0px"
	 width="14px" height="10.73px" viewBox="0 0 14 10.73" enable-background="new 0 0 14 10.73" xml:space="preserve">
<g>
	<path fill="#333333" d="M13.747,2.71L7.208,9.249l-1.229,1.229C5.817,10.64,5.591,10.73,5.365,10.73
		c-0.226,0-0.452-0.09-0.614-0.253L3.522,9.249l-3.27-3.27C0.09,5.817,0,5.591,0,5.365s0.09-0.452,0.253-0.614l1.229-1.229
		C1.644,3.36,1.87,3.27,2.096,3.27c0.226,0,0.452,0.09,0.614,0.253l2.655,2.665l5.925-5.934C11.453,0.09,11.679,0,11.904,0
		c0.226,0,0.452,0.09,0.614,0.253l1.229,1.229C13.91,1.644,14,1.87,14,2.096C14,2.321,13.91,2.547,13.747,2.71z"/>
</g>
</svg>
