<?xml version="1.0" encoding="utf-8"?>
<!-- Generator: Adobe Illustrator 16.0.0, SVG Export Plug-In . SVG Version: 6.00 Build 0)  -->
<!DOCTYPE svg PUBLIC "-//W3C//DTD SVG 1.1//EN" "http://www.w3.org/Graphics/SVG/1.1/DTD/svg11.dtd">
<svg version="1.1" id="Layer_1" xmlns="http://www.w3.org/2000/svg" xmlns:xlink="http://www.w3.org/1999/xlink" x="0px" y="0px"
	 width="113.636px" height="40px" viewBox="0 0 113.636 40" enable-background="new 0 0 113.636 40" xml:space="preserve">
<g>
	<path fill="#808080" d="M18.152,0C8.127,0,0,8.128,0,18.153c0,10.026,8.127,18.153,18.152,18.153
		c10.026,0,18.153-8.127,18.153-18.153C36.306,8.128,28.179,0,18.152,0z M18.153,26.351c-4.528,0-8.197-3.671-8.197-8.197
		c0-4.527,3.668-8.197,8.197-8.197c4.528,0,8.197,3.67,8.197,8.197C26.35,22.68,22.681,26.351,18.153,26.351z"/>
	<g>
		<path fill="#808080" d="M44.514,20.442L43.3,23.603l0.065,0.026c0.422-0.443,0.906-0.817,1.452-1.125
			c0.546-0.307,1.122-0.527,1.728-0.659c0.605-0.134,1.216-0.182,1.833-0.148c0.615,0.035,1.22,0.167,1.813,0.395
			c0.308,0.12,0.627,0.304,0.958,0.558l-1.669,4.348c-0.203-0.129-0.452-0.269-0.745-0.418c-0.296-0.152-0.586-0.281-0.871-0.392
			c-0.857-0.328-1.636-0.465-2.338-0.405c-0.703,0.057-1.331,0.264-1.882,0.619c-0.552,0.355-1.032,0.832-1.438,1.432
			c-0.407,0.6-0.757,1.285-1.052,2.054l-2.946,7.675l-4.679-1.795l6.536-17.03L44.514,20.442z"/>
		<path fill="#808080" d="M49.897,25.259c0.646-1.049,1.439-1.895,2.379-2.535c0.938-0.643,2-1.074,3.184-1.298
			c1.183-0.223,2.458-0.2,3.825,0.067c1.366,0.267,2.562,0.727,3.585,1.38c1.024,0.654,1.851,1.456,2.479,2.403
			c0.629,0.948,1.045,2.03,1.251,3.245c0.204,1.215,0.171,2.517-0.101,3.906c-0.271,1.389-0.729,2.602-1.374,3.639
			c-0.646,1.038-1.436,1.878-2.376,2.52c-0.939,0.643-2.004,1.067-3.197,1.275c-1.192,0.21-2.472,0.182-3.838-0.085
			c-1.367-0.266-2.557-0.722-3.572-1.362c-1.015-0.639-1.837-1.434-2.466-2.382c-0.63-0.948-1.047-2.024-1.253-3.228
			c-0.208-1.204-0.175-2.5,0.096-3.889C48.791,27.526,49.25,26.308,49.897,25.259z M53.097,31.92
			c0.006,0.687,0.119,1.326,0.341,1.916c0.222,0.59,0.571,1.095,1.049,1.513c0.476,0.419,1.117,0.707,1.924,0.865
			c0.806,0.157,1.514,0.132,2.125-0.074c0.609-0.206,1.128-0.541,1.557-1.003c0.427-0.464,0.773-1.014,1.036-1.648
			c0.264-0.635,0.464-1.299,0.599-1.993c0.136-0.695,0.202-1.392,0.199-2.091c-0.003-0.696-0.118-1.336-0.341-1.914
			c-0.225-0.579-0.58-1.085-1.064-1.518c-0.486-0.431-1.132-0.727-1.938-0.884c-0.807-0.158-1.511-0.126-2.112,0.094
			c-0.601,0.22-1.114,0.556-1.54,1.007c-0.426,0.453-0.771,1.002-1.036,1.646c-0.266,0.647-0.467,1.317-0.603,2.013
			C53.156,30.542,53.092,31.233,53.097,31.92z"/>
		<path fill="#808080" d="M69.937,17.653l2.525,18.565l-4.965,0.675l-2.525-18.565L69.937,17.653z"/>
		<path fill="#808080" d="M79.444,17.905v18.736h-5.01V17.905H79.444z"/>
		<path fill="#808080" d="M87.876,32.266c0.753,0.73,1.834,1.095,3.245,1.095c1.013,0,1.882-0.253,2.612-0.759
			c0.728-0.506,1.176-1.041,1.341-1.605h4.41c-0.705,2.188-1.788,3.752-3.246,4.692c-1.459,0.941-3.224,1.412-5.292,1.412
			c-1.437,0-2.729-0.229-3.882-0.688c-1.153-0.458-2.129-1.111-2.929-1.959c-0.8-0.846-1.418-1.857-1.854-3.034
			c-0.434-1.176-0.652-2.469-0.652-3.881c0-1.364,0.224-2.635,0.671-3.811c0.447-1.177,1.082-2.193,1.905-3.053
			c0.824-0.859,1.806-1.535,2.946-2.028c1.142-0.494,2.404-0.741,3.794-0.741c1.552,0,2.905,0.3,4.059,0.899
			c1.151,0.6,2.099,1.405,2.84,2.417c0.74,1.012,1.276,2.164,1.604,3.459c0.33,1.293,0.446,2.646,0.354,4.057H86.642
			C86.711,30.361,87.123,31.537,87.876,32.266z M93.539,22.668c-0.598-0.658-1.511-0.987-2.733-0.987
			c-0.8,0-1.464,0.135-1.994,0.405c-0.528,0.271-0.951,0.606-1.27,1.006c-0.316,0.4-0.542,0.824-0.67,1.271
			c-0.13,0.447-0.206,0.847-0.229,1.199h8.149C94.557,24.292,94.14,23.327,93.539,22.668z"/>
		<path fill="#808080" d="M106.649,18.399v3.387h0.069c0.235-0.564,0.554-1.087,0.953-1.57c0.4-0.481,0.857-0.894,1.378-1.234
			c0.517-0.342,1.069-0.606,1.658-0.794c0.587-0.188,1.199-0.282,1.834-0.282c0.329,0,0.694,0.059,1.095,0.176v4.658
			c-0.237-0.047-0.52-0.088-0.847-0.124c-0.332-0.035-0.648-0.053-0.953-0.053c-0.918,0-1.694,0.153-2.329,0.459
			c-0.636,0.306-1.147,0.723-1.534,1.253c-0.39,0.529-0.666,1.146-0.83,1.852c-0.165,0.706-0.246,1.472-0.246,2.294v8.222h-5.012
			V18.399H106.649z"/>
	</g>
	<g>
		<path fill="#808080" d="M43.492,6.399c-0.24-0.253-0.515-0.44-0.829-0.562c-0.313-0.12-0.649-0.176-1.009-0.171
			c-0.36,0.006-0.727,0.063-1.102,0.171c-0.292,0.084-0.579,0.201-0.86,0.35c-0.28,0.147-0.524,0.332-0.732,0.549
			c-0.208,0.218-0.355,0.469-0.44,0.748c-0.084,0.281-0.077,0.594,0.023,0.942c0.085,0.292,0.229,0.519,0.432,0.677
			c0.205,0.159,0.438,0.278,0.701,0.352c0.262,0.077,0.538,0.119,0.829,0.135c0.289,0.014,0.555,0.017,0.791,0.007l1.867-0.109
			c0.392-0.05,0.792-0.058,1.202-0.018c0.411,0.039,0.792,0.135,1.146,0.291c0.352,0.154,0.67,0.379,0.951,0.675
			c0.281,0.296,0.489,0.68,0.625,1.151c0.167,0.582,0.179,1.119,0.033,1.604c-0.146,0.486-0.388,0.917-0.723,1.292
			c-0.335,0.376-0.745,0.693-1.227,0.953c-0.481,0.259-0.973,0.461-1.474,0.604c-1.265,0.365-2.376,0.362-3.333-0.009
			c-0.957-0.373-1.682-1.201-2.174-2.489l1.314-0.379c0.312,0.875,0.829,1.452,1.549,1.733c0.721,0.281,1.519,0.296,2.395,0.043
			c0.319-0.092,0.64-0.222,0.96-0.392c0.319-0.166,0.601-0.375,0.845-0.627c0.244-0.25,0.423-0.531,0.537-0.843
			c0.113-0.31,0.115-0.654,0.007-1.029c-0.092-0.319-0.234-0.569-0.429-0.747c-0.194-0.177-0.423-0.306-0.687-0.389
			c-0.265-0.081-0.554-0.13-0.866-0.144c-0.313-0.015-0.625-0.015-0.937-0.001l-1.797,0.111c-0.463,0.013-0.897-0.001-1.3-0.043
			c-0.402-0.042-0.771-0.131-1.104-0.27c-0.334-0.136-0.622-0.339-0.865-0.608c-0.244-0.269-0.431-0.632-0.564-1.09
			c-0.156-0.542-0.167-1.042-0.037-1.503c0.131-0.46,0.356-0.862,0.678-1.212c0.321-0.347,0.705-0.646,1.152-0.896
			c0.448-0.25,0.908-0.442,1.38-0.58c0.542-0.156,1.065-0.23,1.572-0.226c0.505,0.004,0.978,0.1,1.417,0.291
			c0.438,0.19,0.824,0.471,1.157,0.842c0.333,0.37,0.597,0.844,0.792,1.419l-1.313,0.377C43.915,6.982,43.73,6.656,43.492,6.399z"/>
		<path fill="#808080" d="M49.656,3.355L49.779,4.5l-2.263,0.245l0.815,7.507c0.049,0.445,0.148,0.787,0.297,1.025
			c0.15,0.238,0.471,0.345,0.962,0.32c0.388-0.042,0.772-0.105,1.157-0.191l0.124,1.143c-0.2,0.021-0.401,0.052-0.599,0.086
			c-0.2,0.038-0.402,0.067-0.603,0.088c-0.905,0.098-1.557-0.009-1.955-0.323c-0.398-0.312-0.641-0.944-0.73-1.895l-0.827-7.612
			l-1.942,0.21l-0.124-1.142l1.941-0.213L45.67,0.406l1.36-0.147l0.363,3.343L49.656,3.355z"/>
		<path fill="#808080" d="M50.553,10.757c0.139,0.527,0.359,1.002,0.662,1.42c0.305,0.419,0.688,0.767,1.15,1.042
			c0.463,0.275,1.02,0.414,1.67,0.414c0.998,0,1.779-0.261,2.344-0.782c0.563-0.521,0.954-1.216,1.171-2.083h1.368
			c-0.291,1.273-0.822,2.256-1.596,2.949c-0.774,0.695-1.869,1.042-3.287,1.042c-0.882,0-1.645-0.154-2.288-0.467
			c-0.645-0.309-1.169-0.736-1.574-1.28c-0.405-0.542-0.705-1.171-0.9-1.887c-0.195-0.714-0.293-1.471-0.293-2.267
			c0-0.737,0.098-1.46,0.293-2.168c0.195-0.708,0.495-1.342,0.9-1.899c0.405-0.557,0.929-1.006,1.574-1.345
			c0.643-0.339,1.405-0.511,2.288-0.511c0.898,0,1.663,0.182,2.3,0.544c0.636,0.361,1.154,0.835,1.552,1.421
			c0.397,0.584,0.683,1.257,0.857,2.018c0.174,0.759,0.244,1.528,0.217,2.31h-8.615C50.347,9.719,50.416,10.23,50.553,10.757z
			 M57.323,6.58c-0.167-0.477-0.401-0.899-0.705-1.269c-0.302-0.369-0.673-0.665-1.106-0.89c-0.434-0.225-0.926-0.335-1.476-0.335
			c-0.563,0-1.063,0.11-1.497,0.335c-0.434,0.225-0.802,0.521-1.105,0.89c-0.304,0.37-0.546,0.796-0.727,1.279
			c-0.182,0.486-0.301,0.981-0.36,1.487h7.248C57.58,7.558,57.49,7.058,57.323,6.58z"/>
		<path fill="#808080" d="M60.545,4.998c0.23-0.479,0.545-0.869,0.944-1.172c0.396-0.305,0.862-0.528,1.398-0.673
			c0.534-0.145,1.128-0.218,1.779-0.218c0.491,0,0.983,0.049,1.474,0.144c0.492,0.092,0.935,0.271,1.324,0.531
			c0.391,0.261,0.708,0.625,0.955,1.095c0.245,0.47,0.369,1.082,0.369,1.832v5.944c0,0.551,0.268,0.826,0.803,0.826
			c0.158,0,0.303-0.029,0.434-0.087v1.151c-0.16,0.028-0.301,0.051-0.424,0.065c-0.122,0.014-0.277,0.021-0.466,0.021
			c-0.347,0-0.625-0.046-0.837-0.141c-0.209-0.093-0.371-0.228-0.486-0.401c-0.115-0.174-0.193-0.379-0.229-0.619
			c-0.036-0.239-0.054-0.502-0.054-0.792h-0.043c-0.247,0.361-0.496,0.684-0.748,0.966c-0.254,0.282-0.537,0.518-0.846,0.706
			c-0.313,0.187-0.667,0.331-1.064,0.434c-0.396,0.101-0.872,0.151-1.421,0.151c-0.521,0-1.008-0.062-1.466-0.186
			c-0.453-0.122-0.853-0.317-1.192-0.583c-0.34-0.268-0.607-0.608-0.803-1.021c-0.195-0.413-0.292-0.9-0.292-1.464
			c0-0.78,0.174-1.392,0.52-1.833c0.347-0.44,0.807-0.777,1.379-1.008c0.571-0.23,1.214-0.395,1.93-0.488
			c0.716-0.095,1.442-0.185,2.181-0.272c0.289-0.028,0.543-0.065,0.76-0.107c0.218-0.042,0.397-0.119,0.542-0.228
			c0.146-0.108,0.257-0.257,0.336-0.445c0.081-0.188,0.12-0.433,0.12-0.739c0-0.462-0.075-0.84-0.229-1.138
			c-0.151-0.297-0.36-0.531-0.63-0.705c-0.267-0.173-0.578-0.293-0.931-0.357c-0.355-0.066-0.735-0.098-1.141-0.098
			c-0.867,0-1.577,0.206-2.125,0.618c-0.55,0.412-0.84,1.074-0.869,1.986h-1.365C60.175,6.038,60.313,5.474,60.545,4.998z
			 M67.379,8.338c-0.087,0.159-0.254,0.275-0.499,0.347c-0.247,0.073-0.464,0.123-0.652,0.152c-0.577,0.102-1.175,0.192-1.788,0.272
			c-0.616,0.079-1.176,0.198-1.683,0.358c-0.506,0.159-0.922,0.387-1.248,0.682c-0.326,0.296-0.487,0.72-0.487,1.27
			c0,0.346,0.068,0.654,0.206,0.922c0.138,0.268,0.322,0.499,0.553,0.695c0.231,0.195,0.501,0.342,0.804,0.444
			c0.304,0.102,0.614,0.153,0.932,0.153c0.521,0,1.021-0.08,1.498-0.238c0.479-0.16,0.893-0.392,1.248-0.696
			c0.353-0.303,0.635-0.674,0.846-1.105c0.209-0.435,0.314-0.927,0.314-1.476v-1.78H67.379z"/>
		<path fill="#808080" d="M72.239,3.261v1.887h0.064c0.361-0.694,0.835-1.235,1.421-1.628c0.586-0.39,1.334-0.586,2.246-0.586
			c0.737,0,1.406,0.182,2.007,0.544c0.599,0.361,1.002,0.911,1.204,1.648c0.333-0.738,0.824-1.288,1.476-1.648
			C81.307,3.116,82,2.935,82.74,2.935c2.473,0,3.71,1.311,3.71,3.928v7.594h-1.368V6.928c0-0.926-0.195-1.63-0.584-2.115
			c-0.392-0.486-1.079-0.727-2.062-0.727c-0.594,0-1.086,0.11-1.476,0.335c-0.39,0.225-0.701,0.525-0.933,0.901
			c-0.232,0.375-0.396,0.806-0.489,1.29c-0.093,0.486-0.141,0.988-0.141,1.509v6.334H78.03V6.862c0-0.375-0.04-0.734-0.118-1.074
			c-0.079-0.339-0.21-0.637-0.39-0.889c-0.182-0.254-0.423-0.453-0.728-0.598c-0.304-0.144-0.673-0.216-1.106-0.216
			c-0.579,0-1.081,0.105-1.508,0.315C73.751,4.61,73.406,4.9,73.138,5.267c-0.268,0.371-0.467,0.803-0.596,1.303
			c-0.132,0.498-0.194,1.044-0.194,1.638v6.248h-1.369V3.261H72.239z"/>
	</g>
</g>
</svg>
