<?xml version="1.0" encoding="utf-8"?>
<!-- Generator: Adobe Illustrator 16.0.0, SVG Export Plug-In . SVG Version: 6.00 Build 0)  -->
<!DOCTYPE svg PUBLIC "-//W3C//DTD SVG 1.1//EN" "http://www.w3.org/Graphics/SVG/1.1/DTD/svg11.dtd">
<svg version="1.1" id="Layer_1" xmlns="http://www.w3.org/2000/svg" xmlns:xlink="http://www.w3.org/1999/xlink" x="0px" y="0px"
	 width="227.15px" height="323.25px" viewBox="0 0 227.15 323.25" enable-background="new 0 0 227.15 323.25" xml:space="preserve">
<path fill="#35AA40" d="M189.089,124.878l32.935-90.464c1.643-4.501-0.684-9.489-5.188-11.128L154.312,0.523
	C153.333,0.166,152.328,0,151.345,0c-3.541,0-6.871,2.191-8.155,5.708l-32.935,90.464c-45.115,1.333-86.992,29.649-103.37,74.648
	c-21.458,58.926,8.92,124.092,67.851,145.558c12.814,4.651,25.938,6.871,38.833,6.871c46.383,0,89.919-28.632,106.703-74.73
	C236.655,203.515,222.792,154.898,189.089,124.878z M133.92,245.752c-6.635,0-12.018-5.377-12.018-12.017
	c0-6.629,5.383-12.017,12.018-12.017c6.639,0,12.016,5.388,12.016,12.017C145.936,240.375,140.559,245.752,133.92,245.752z
	 M159.184,269.891c-4.487,0-8.134-3.641-8.134-8.145c0-4.493,3.646-8.144,8.134-8.144c4.498,0,8.145,3.65,8.145,8.144
	C167.328,266.25,163.682,269.891,159.184,269.891z M167.633,230.727c-9.159,0-16.583-7.671-16.583-17.142
	c0-9.47,7.424-17.151,16.583-17.151c9.166,0,16.595,7.682,16.595,17.151C184.228,223.056,176.799,230.727,167.633,230.727z
	 M140.223,193.972c-14.464,15.194-41.948,26.758-66.537,0c-15.126-16.468-35.721-14.858-49.334-11.176
	c0.508-1.684,0.955-3.377,1.56-5.051c13.148-36.121,46.491-60.196,84.943-61.333l13.726-0.402l4.704-12.911l28.974-79.584
	l40.779,14.85l-28.973,79.586l-4.704,12.895l10.26,9.145c16.01,14.269,26.206,32.988,29.825,53.012
	C177.803,172.032,152.76,180.797,140.223,193.972z"/>
</svg>
