<?xml version="1.0" encoding="utf-8"?>
<!-- Generator: Adobe Illustrator 16.0.0, SVG Export Plug-In . SVG Version: 6.00 Build 0)  -->
<!DOCTYPE svg PUBLIC "-//W3C//DTD SVG 1.1//EN" "http://www.w3.org/Graphics/SVG/1.1/DTD/svg11.dtd">
<svg version="1.1" id="Layer_1" xmlns="http://www.w3.org/2000/svg" xmlns:xlink="http://www.w3.org/1999/xlink" x="0px" y="0px"
	 width="293.278px" height="60px" viewBox="0 0 293.278 60" enable-background="new 0 0 293.278 60" xml:space="preserve">
<g>
	<g>
		<path d="M53.623,12.854h6.135v35.2h-6.135V12.854z"/>
		<path d="M65.993,21.502h6.134v4.166c0.435-0.643,0.912-1.242,1.43-1.801c0.518-0.557,1.12-1.056,1.805-1.496
			c0.685-0.441,1.438-0.787,2.256-1.041c0.819-0.254,1.747-0.382,2.784-0.382c3.008,0,5.332,0.922,6.97,2.766
			c1.638,1.844,2.457,4.324,2.457,7.442v16.896h-6.134v-15.05c0-2.074-0.491-3.671-1.471-4.792c-0.981-1.12-2.369-1.68-4.164-1.68
			c-1.761,0-3.19,0.578-4.286,1.731c-1.098,1.154-1.646,2.767-1.646,4.841v14.95h-6.134V21.502z"/>
		<path d="M103.605,48.505c-1.108,0-2.134-0.134-3.08-0.401c-0.947-0.268-1.767-0.704-2.459-1.309
			c-0.693-0.603-1.226-1.398-1.598-2.389c-0.372-0.988-0.557-2.22-0.557-3.695V26.732h-3.369v-5.229h3.369V14.21h6.134v7.292h7.142
			v5.229h-7.142v13.024c0,1.173,0.285,2.02,0.855,2.538c0.569,0.521,1.374,0.78,2.413,0.78c1.309,0,2.564-0.301,3.772-0.905v4.979
			c-0.771,0.436-1.593,0.771-2.463,1.006C105.75,48.388,104.745,48.505,103.605,48.505z"/>
		<path d="M124.925,48.657c-1.91,0-3.695-0.336-5.355-1.005c-1.659-0.671-3.101-1.609-4.324-2.816
			c-1.224-1.207-2.188-2.657-2.892-4.351c-0.704-1.692-1.056-3.561-1.056-5.606v-0.101c0-1.912,0.319-3.704,0.955-5.38
			c0.638-1.677,1.535-3.143,2.691-4.4c1.156-1.256,2.522-2.245,4.098-2.967c1.575-0.721,3.318-1.081,5.23-1.081
			c2.112,0,3.963,0.387,5.556,1.157c1.593,0.773,2.917,1.811,3.972,3.118c1.056,1.307,1.853,2.824,2.389,4.551
			c0.536,1.726,0.805,3.544,0.805,5.456c0,0.27-0.008,0.546-0.025,0.83c-0.018,0.285-0.042,0.578-0.076,0.881h-19.51
			c0.334,2.179,1.198,3.847,2.589,5.003c1.39,1.157,3.076,1.735,5.053,1.735c1.509,0,2.816-0.269,3.923-0.806
			c1.106-0.536,2.195-1.323,3.269-2.363l3.569,3.169c-1.274,1.507-2.79,2.715-4.551,3.619
			C129.476,48.204,127.373,48.657,124.925,48.657z M130.96,32.917c-0.101-0.972-0.319-1.886-0.654-2.742
			c-0.335-0.854-0.788-1.59-1.357-2.211c-0.571-0.621-1.249-1.114-2.037-1.484c-0.788-0.369-1.684-0.554-2.69-0.554
			c-1.877,0-3.427,0.646-4.651,1.936c-1.224,1.292-1.97,2.977-2.237,5.055H130.96z"/>
		<path d="M140.615,21.502h6.134v5.983c0.838-2.011,2.028-3.619,3.57-4.827c1.542-1.208,3.486-1.76,5.833-1.659v6.436h-0.352
			c-1.342,0-2.564,0.218-3.671,0.654s-2.062,1.089-2.866,1.96c-0.805,0.872-1.426,1.97-1.86,3.295
			c-0.437,1.324-0.654,2.858-0.654,4.601v10.107h-6.134V21.502z"/>
		<path d="M158.867,21.502h6.135v4.166c0.435-0.643,0.911-1.242,1.429-1.801c0.518-0.557,1.12-1.056,1.805-1.496
			c0.686-0.441,1.439-0.787,2.257-1.041c0.818-0.254,1.747-0.382,2.783-0.382c3.008,0,5.332,0.922,6.97,2.766
			c1.638,1.844,2.457,4.324,2.457,7.442v16.896h-6.134v-15.05c0-2.074-0.491-3.671-1.471-4.792c-0.981-1.12-2.369-1.68-4.163-1.68
			c-1.762,0-3.19,0.578-4.287,1.731c-1.097,1.154-1.646,2.767-1.646,4.841v14.95h-6.135V21.502z"/>
		<path d="M188.234,12.854h6.134v29.618h18.505v5.582h-24.639V12.854z"/>
		<path d="M232.384,48.053v-3.269c-0.905,1.072-2.062,1.978-3.47,2.715c-1.408,0.737-3.117,1.107-5.13,1.107
			c-1.273,0-2.48-0.177-3.62-0.529c-1.14-0.352-2.137-0.871-2.991-1.558c-0.855-0.687-1.543-1.542-2.062-2.565
			c-0.521-1.022-0.78-2.204-0.78-3.544v-0.103c0-1.474,0.268-2.756,0.805-3.847c0.536-1.088,1.282-1.993,2.237-2.715
			c0.956-0.72,2.096-1.257,3.42-1.608c1.324-0.353,2.757-0.528,4.3-0.528c1.608,0,2.975,0.1,4.099,0.301
			c1.122,0.202,2.202,0.471,3.243,0.807v-0.504c0-1.843-0.562-3.251-1.686-4.224c-1.123-0.973-2.739-1.459-4.852-1.459
			c-1.509,0-2.851,0.151-4.023,0.453c-1.175,0.302-2.363,0.704-3.57,1.207l-1.659-4.878c1.476-0.669,2.982-1.207,4.525-1.608
			c1.542-0.401,3.402-0.603,5.582-0.603c3.955,0,6.889,0.98,8.799,2.941c1.912,1.961,2.867,4.719,2.867,8.272v15.739H232.384z
			 M232.534,36.941c-0.771-0.303-1.685-0.554-2.74-0.755s-2.171-0.303-3.344-0.303c-1.911,0-3.403,0.37-4.476,1.107
			c-1.073,0.736-1.609,1.743-1.609,3.017v0.101c0,1.274,0.494,2.246,1.484,2.917c0.988,0.671,2.203,1.005,3.645,1.005
			c1.007,0,1.937-0.133,2.791-0.401s1.602-0.646,2.238-1.132c0.636-0.486,1.131-1.071,1.483-1.76
			c0.352-0.687,0.527-1.45,0.527-2.289V36.941z"/>
		<path d="M258.259,48.607c-2.175,0-3.98-0.47-5.418-1.408s-2.625-2.029-3.562-3.269v4.123h-6.134V11.345h6.134l-0.05,14.583
			c0.972-1.408,2.178-2.589,3.62-3.544c1.441-0.955,3.235-1.434,5.381-1.434c1.576,0,3.1,0.302,4.576,0.906
			c1.475,0.604,2.79,1.492,3.946,2.665c1.157,1.174,2.087,2.616,2.791,4.324c0.704,1.71,1.057,3.671,1.057,5.883v0.102
			c0,2.212-0.343,4.174-1.028,5.883s-1.606,3.152-2.76,4.324c-1.153,1.175-2.475,2.062-3.963,2.665
			C261.36,48.304,259.83,48.607,258.259,48.607z M256.872,43.326c1.038,0,2.02-0.201,2.941-0.602
			c0.922-0.403,1.726-0.965,2.414-1.686c0.687-0.721,1.231-1.609,1.635-2.665c0.401-1.057,0.603-2.239,0.603-3.545v-0.102
			c0-1.273-0.201-2.439-0.603-3.494c-0.403-1.057-0.948-1.953-1.635-2.69c-0.688-0.737-1.492-1.309-2.414-1.71
			c-0.922-0.402-1.903-0.604-2.941-0.604c-1.04,0-2.028,0.202-2.968,0.604c-0.938,0.401-1.76,0.98-2.463,1.735
			c-0.704,0.754-1.266,1.651-1.685,2.69c-0.419,1.04-0.629,2.196-0.629,3.469v0.102c0,1.274,0.21,2.438,0.629,3.494
			c0.419,1.057,0.98,1.952,1.685,2.689c0.703,0.738,1.524,1.309,2.463,1.712C254.844,43.125,255.832,43.326,256.872,43.326z"/>
		<path d="M283.423,48.557c-1.91,0-3.847-0.341-5.808-1.018c-1.962-0.678-3.781-1.677-5.456-2.998l2.716-4.131
			c1.439,1.072,2.907,1.884,4.399,2.438c1.491,0.553,2.925,0.83,4.299,0.83c1.308,0,2.322-0.261,3.042-0.779
			c0.721-0.518,1.082-1.212,1.082-2.082v-0.1c0-0.502-0.159-0.936-0.479-1.304c-0.318-0.368-0.754-0.687-1.307-0.955
			c-0.553-0.267-1.19-0.518-1.911-0.751c-0.722-0.234-1.467-0.47-2.237-0.704c-0.973-0.267-1.954-0.585-2.942-0.953
			c-0.988-0.367-1.877-0.844-2.664-1.429c-0.788-0.586-1.434-1.313-1.937-2.183c-0.502-0.87-0.755-1.94-0.755-3.212v-0.1
			c0-1.237,0.243-2.358,0.73-3.362c0.484-1.003,1.156-1.857,2.011-2.559c0.854-0.703,1.86-1.237,3.018-1.604
			c1.156-0.369,2.388-0.553,3.696-0.553c1.676,0,3.369,0.271,5.078,0.814c1.71,0.542,3.269,1.287,4.676,2.235l-2.413,4.342
			c-1.274-0.77-2.564-1.382-3.872-1.834s-2.514-0.679-3.621-0.679c-1.173,0-2.087,0.252-2.739,0.753
			c-0.654,0.502-0.981,1.138-0.981,1.905v0.102c0,0.467,0.168,0.878,0.504,1.229c0.334,0.352,0.778,0.669,1.332,0.954
			c0.553,0.284,1.189,0.552,1.911,0.802c0.72,0.252,1.466,0.494,2.237,0.729c0.972,0.301,1.943,0.651,2.917,1.053
			c0.972,0.401,1.851,0.896,2.639,1.48c0.788,0.586,1.435,1.297,1.937,2.132c0.503,0.837,0.754,1.857,0.754,3.061v0.102
			c0,1.404-0.251,2.626-0.754,3.662c-0.502,1.038-1.199,1.898-2.087,2.583c-0.889,0.687-1.937,1.205-3.143,1.557
			C286.088,48.38,284.797,48.557,283.423,48.557z"/>
	</g>
	<path fill="#39B54A" d="M35.098,23.179l6.113-16.792c0.304-0.835-0.126-1.761-0.963-2.065L28.643,0.097
		C28.461,0.031,28.274,0,28.092,0c-0.658,0-1.276,0.407-1.514,1.06l-6.113,16.792c-8.374,0.248-16.147,5.503-19.187,13.856
		c-3.983,10.937,1.656,23.033,12.594,27.017C16.25,59.588,18.687,60,21.08,60c8.609,0,16.69-5.313,19.806-13.871
		C43.927,37.775,41.354,28.751,35.098,23.179z M24.858,45.616c-1.232,0-2.23-0.998-2.23-2.23c0-1.231,0.999-2.23,2.23-2.23
		c1.231,0,2.23,0.999,2.23,2.23C27.088,44.618,26.089,45.616,24.858,45.616z M29.547,50.095c-0.833,0-1.511-0.676-1.511-1.511
		s0.677-1.512,1.511-1.512c0.834,0,1.511,0.677,1.511,1.512S30.382,50.095,29.547,50.095z M31.116,42.827
		c-1.701,0-3.079-1.424-3.079-3.182c0-1.759,1.378-3.184,3.079-3.184c1.701,0,3.08,1.425,3.08,3.184
		C34.196,41.403,32.817,42.827,31.116,42.827z M26.027,36.003c-2.685,2.82-7.786,4.968-12.35,0c-2.808-3.056-6.63-2.757-9.157-2.074
		c0.094-0.312,0.177-0.627,0.29-0.937c2.44-6.705,8.629-11.174,15.767-11.385l2.548-0.075l0.873-2.396l5.378-14.772l7.569,2.756
		l-5.378,14.772l-0.873,2.394l1.904,1.697c2.972,2.648,4.865,6.123,5.537,9.839C33.003,31.932,28.354,33.559,26.027,36.003z"/>
</g>
</svg>
